<svg width="129" height="41" viewBox="0 0 129 41" fill="none" xmlns="http://www.w3.org/2000/svg">
<path d="M0.199219 39.9999L11.7912 0.799898H18.2312L11.6792 39.9999H7.87122L9.04722 33.3359H5.85522L3.95122 39.9999H0.199219ZM7.31122 28.1279L6.86322 29.6399H9.71922L9.99922 28.1279C10.8579 23.3866 11.5486 19.5972 12.0712 16.7599C12.6312 13.8852 13.6392 8.90123 15.0952 1.8079H14.3672C13.2099 6.58657 12.2579 10.3759 11.5112 13.1759C10.7646 15.9386 9.36455 20.9226 7.31122 28.1279Z" fill="black"/>
<path d="M15.0082 39.9999L24.0802 0.799898H28.0002L19.8242 36.2479H24.3602L23.5202 39.9999H15.0082Z" fill="black"/>
<path d="M26.5214 39.9999L35.5934 0.799898H39.5134L30.4414 39.9999H26.5214Z" fill="black"/>
<path d="M41.4161 38.8799C41.1174 39.4399 40.7254 39.8506 40.2401 40.1119C39.7921 40.3732 39.2508 40.5039 38.6161 40.5039C37.7201 40.5039 37.0294 40.1866 36.5441 39.5519C36.0588 38.9172 35.8161 38.0026 35.8161 36.8079C35.8161 35.6879 36.0401 33.9519 36.4881 31.5999C36.9361 29.2106 37.7388 25.5146 38.8961 20.5119C40.3148 14.4639 41.3788 10.2079 42.0881 7.7439C42.7974 5.24257 43.5441 3.46923 44.3281 2.4239C44.8881 1.67723 45.5414 1.1359 46.2881 0.799898C47.0721 0.463898 48.0241 0.295898 49.1441 0.295898C50.3761 0.295898 51.3281 0.650564 52.0001 1.3599C52.6721 2.06923 53.0081 3.07723 53.0081 4.3839C53.0081 5.20523 52.8774 6.2879 52.6161 7.6319C52.3921 8.93857 51.9814 10.8986 51.3841 13.5119H47.8561C48.6028 10.3386 49.0694 8.26657 49.2561 7.2959C49.4428 6.32523 49.5361 5.6159 49.5361 5.1679C49.5361 4.7199 49.4241 4.3839 49.2001 4.1599C49.0134 3.9359 48.7148 3.8239 48.3041 3.8239C47.9681 3.8239 47.6694 3.89857 47.4081 4.0479C47.1468 4.19723 46.9414 4.4399 46.7921 4.7759C46.4934 5.37323 46.0828 6.66123 45.5601 8.6399C45.0748 10.6186 44.1601 14.5572 42.8161 20.4559C41.5841 25.6826 40.7254 29.4346 40.2401 31.7119C39.7921 33.9519 39.5681 35.3892 39.5681 36.0239C39.5681 36.3226 39.6241 36.5652 39.7361 36.7519C39.8481 36.9012 40.0161 36.9759 40.2401 36.9759C40.4641 36.9759 40.6508 36.9012 40.8001 36.7519C40.9868 36.6026 41.1361 36.3972 41.2481 36.1359C41.5094 35.6506 41.8641 34.6052 42.3121 32.9999C42.7601 31.3572 43.4321 28.7812 44.3281 25.2719H43.2081L44.1041 21.2399H49.7041L45.2801 39.9999H42.2561L42.3121 39.7199C42.3494 39.5706 42.5921 38.6186 43.0401 36.8639C43.5254 35.0719 44.5708 31.2079 46.1761 25.2719H45.2801C43.7868 31.2452 42.8534 34.8292 42.4801 36.0239C42.1441 37.2186 41.7894 38.1706 41.4161 38.8799Z" fill="black"/>
<path d="M49.1025 39.9999L58.1745 0.799898H62.0945L58.2865 33.2799H58.9585C60.0412 26.4479 60.7132 22.2106 60.9745 20.5679C61.2732 18.8879 61.5345 17.5626 61.7585 16.5919L65.3985 0.799898H69.3185L60.2465 39.9999H56.3265L60.1905 7.5199H59.4625C58.3799 14.2399 57.6892 18.5332 57.3905 20.3999C57.0919 22.2292 56.8119 23.6666 56.5505 24.7119L53.0225 39.9999H49.1025Z" fill="black"/>
<path d="M63.9277 39.9999L72.9997 0.799898H77.0877C78.9171 0.799898 80.2611 1.15456 81.1197 1.8639C82.0157 2.57323 82.4637 3.67456 82.4637 5.1679C82.4637 5.80257 82.3704 6.71723 82.1837 7.9119C81.9971 9.06923 81.7171 10.4319 81.3437 11.9999C80.7837 14.4266 80.3544 16.0506 80.0557 16.8719C79.7571 17.6559 79.3837 18.2906 78.9357 18.7759C78.5251 19.2239 78.0211 19.5599 77.4237 19.7839C76.8637 19.9706 76.1357 20.0826 75.2397 20.1199L75.0717 20.7919C76.3037 20.8292 77.1997 21.0906 77.7597 21.5759C78.3571 22.0612 78.6557 22.8079 78.6557 23.8159C78.6557 24.4132 78.5624 25.2159 78.3757 26.2239C78.2264 27.2319 77.9091 28.7812 77.4237 30.8719C77.0131 32.6639 76.5651 34.1386 76.0797 35.2959C75.5944 36.4159 75.0157 37.3306 74.3437 38.0399C73.7091 38.7119 72.9251 39.2159 71.9917 39.5519C71.0957 39.8506 69.9384 39.9999 68.5197 39.9999H63.9277ZM78.7677 6.1199C78.7677 5.52257 78.5997 5.09323 78.2637 4.8319C77.9277 4.53323 77.3864 4.3839 76.6397 4.3839H76.0797L72.4957 19.9519H73.1117C73.7091 19.9519 74.2131 19.8586 74.6237 19.6719C75.0717 19.4852 75.4264 19.2052 75.6877 18.8319C75.9117 18.4959 76.1357 17.9546 76.3597 17.2079C76.5837 16.4612 77.0131 14.7252 77.6477 11.9999C78.0957 10.0212 78.3944 8.65857 78.5437 7.9119C78.6931 7.1279 78.7677 6.53057 78.7677 6.1199ZM75.1277 22.7519C75.1277 22.1172 74.9411 21.6692 74.5677 21.4079C74.2317 21.1466 73.6344 21.0159 72.7757 21.0159H72.2157L68.6877 36.4159H69.3597C69.8824 36.4159 70.3304 36.3412 70.7037 36.1919C71.0771 36.0426 71.4131 35.8372 71.7117 35.5759C72.0851 35.2026 72.4211 34.5679 72.7197 33.6719C73.0184 32.7759 73.4291 31.2266 73.9517 29.0239C74.4371 26.8959 74.7544 25.4212 74.9037 24.5999C75.0531 23.7786 75.1277 23.1626 75.1277 22.7519Z" fill="black" fill-opacity="0.2"/>
<path d="M89.4143 38.0399C88.817 38.8986 88.145 39.5332 87.3983 39.9439C86.6516 40.3172 85.7743 40.5039 84.7663 40.5039C83.2356 40.5039 82.097 40.1119 81.3503 39.3279C80.6036 38.5066 80.2303 37.2932 80.2303 35.6879C80.2303 34.5679 80.417 32.9812 80.7903 30.9279C81.1636 28.8372 81.929 25.3279 83.0863 20.3999C84.393 14.6879 85.4196 10.5626 86.1663 8.0239C86.9503 5.48523 87.6783 3.73056 88.3503 2.7599C88.9476 1.90123 89.6196 1.28523 90.3663 0.9119C91.113 0.501232 91.9903 0.295898 92.9983 0.295898C94.529 0.295898 95.6676 0.706565 96.4143 1.5279C97.161 2.3119 97.5343 3.50657 97.5343 5.1119C97.5343 6.2319 97.3476 7.83723 96.9743 9.9279C96.601 11.9812 95.8356 15.4719 94.6783 20.3999C93.3716 26.1119 92.3263 30.2372 91.5423 32.7759C90.7956 35.3146 90.0863 37.0692 89.4143 38.0399ZM93.8943 5.4479C93.8943 4.8879 93.7823 4.47723 93.5583 4.2159C93.3716 3.95456 93.0543 3.8239 92.6063 3.8239C92.2703 3.8239 91.9716 3.89857 91.7103 4.0479C91.4863 4.19723 91.281 4.4399 91.0943 4.7759C90.721 5.41057 90.2543 6.7919 89.6943 8.9199C89.1716 11.0479 88.2756 14.8746 87.0063 20.3999C85.513 26.8586 84.617 30.8346 84.3183 32.3279C84.0196 33.7839 83.8703 34.7919 83.8703 35.3519C83.8703 35.9119 83.9636 36.3226 84.1503 36.5839C84.3743 36.8452 84.7103 36.9759 85.1583 36.9759C85.4943 36.9759 85.7743 36.9012 85.9983 36.7519C86.2596 36.6026 86.4836 36.3599 86.6703 36.0239C87.0063 35.4266 87.417 34.1946 87.9023 32.3279C88.3876 30.4239 89.3396 26.4479 90.7583 20.3999C92.2516 13.9412 93.1476 9.9839 93.4463 8.5279C93.745 7.03456 93.8943 6.0079 93.8943 5.4479Z" fill="black" fill-opacity="0.2"/>
<path d="M93.949 39.9999L103.021 0.799898H107.333C109.162 0.799898 110.525 1.17323 111.421 1.9199C112.317 2.66657 112.765 3.8239 112.765 5.3919C112.765 6.47457 112.541 8.15456 112.093 10.4319C111.682 12.6719 110.973 15.9946 109.965 20.3999C108.472 26.8959 107.389 31.2826 106.717 33.5599C106.045 35.7999 105.317 37.3306 104.533 38.1519C103.898 38.8239 103.133 39.3092 102.237 39.6079C101.378 39.8692 100.184 39.9999 98.653 39.9999H93.949ZM109.013 6.1759C109.013 5.5039 108.845 5.03723 108.509 4.7759C108.21 4.51457 107.688 4.3839 106.941 4.3839H106.101L98.709 36.4159H99.661C100.258 36.4159 100.725 36.3599 101.061 36.2479C101.434 36.0986 101.752 35.8746 102.013 35.5759C102.349 35.1652 102.722 34.1759 103.133 32.6079C103.581 31.0026 104.552 26.9332 106.045 20.3999C107.389 14.5759 108.21 10.8799 108.509 9.3119C108.845 7.7439 109.013 6.69857 109.013 6.1759Z" fill="black" fill-opacity="0.2"/>
<path d="M111.873 39.9999L113.833 31.5999L117.025 0.799898H121.001L119.041 14.6319C118.929 15.4532 118.705 16.6852 118.369 18.3279C118.033 19.9706 117.548 22.3412 116.913 25.4399H117.641C118.425 22.1546 119.022 19.7279 119.433 18.1599C119.844 16.5919 120.18 15.4159 120.441 14.6319L124.921 0.799898H128.841L117.753 31.5999L115.793 39.9999H111.873Z" fill="black" fill-opacity="0.2"/>
</svg>
