<svg width="107" height="62" viewBox="0 0 107 62" fill="none" xmlns="http://www.w3.org/2000/svg">
<path d="M0.699219 60.9999L18.5012 0.799879H28.3912L18.3292 60.9999H12.4812L14.2872 50.7659H9.38522L6.46122 60.9999H0.699219ZM11.6212 42.7679L10.9332 45.0899H15.3192L15.7492 42.7679C17.0679 35.4865 18.1286 29.6672 18.9312 25.3099C19.7912 20.8952 21.3392 13.2412 23.5752 2.34788H22.4572C20.6799 9.68655 19.2179 15.5059 18.0712 19.8059C16.9246 24.0485 14.7746 31.7025 11.6212 42.7679Z" fill="black"/>
<path d="M23.4415 60.9999L37.3735 0.799879H43.3935L30.8375 55.2379H37.8035L36.5135 60.9999H23.4415Z" fill="black"/>
<path d="M41.1226 60.9999L55.0546 0.799879H61.0746L47.1426 60.9999H41.1226Z" fill="black"/>
<path d="M63.9966 59.2799C63.5379 60.1399 62.9359 60.7705 62.1906 61.1719C61.5026 61.5732 60.6712 61.7739 59.6966 61.7739C58.3206 61.7739 57.2599 61.2865 56.5146 60.3119C55.7692 59.3372 55.3966 57.9326 55.3966 56.0979C55.3966 54.3779 55.7406 51.7119 56.4286 48.0999C57.1166 44.4306 58.3492 38.7545 60.1266 31.0719C62.3052 21.7839 63.9392 15.2479 65.0286 11.4639C66.1179 7.62255 67.2646 4.89922 68.4686 3.29388C69.3286 2.14721 70.3319 1.31588 71.4786 0.799879C72.6826 0.283879 74.1446 0.0258789 75.8646 0.0258789C77.7566 0.0258789 79.2186 0.570547 80.2506 1.65988C81.2826 2.74922 81.7986 4.29722 81.7986 6.30388C81.7986 7.56521 81.5979 9.22788 81.1966 11.2919C80.8526 13.2985 80.2219 16.3085 79.3046 20.3219H73.8866C75.0332 15.4485 75.7499 12.2665 76.0366 10.7759C76.3232 9.28521 76.4666 8.19588 76.4666 7.50788C76.4666 6.81988 76.2946 6.30388 75.9506 5.95988C75.6639 5.61588 75.2052 5.44388 74.5746 5.44388C74.0586 5.44388 73.5999 5.55855 73.1986 5.78788C72.7972 6.01722 72.4819 6.38988 72.2526 6.90588C71.7939 7.82322 71.1632 9.80122 70.3606 12.8399C69.6152 15.8785 68.2106 21.9272 66.1466 30.9859C64.2546 39.0126 62.9359 44.7746 62.1906 48.2719C61.5026 51.7119 61.1586 53.9192 61.1586 54.8939C61.1586 55.3525 61.2446 55.7252 61.4166 56.0119C61.5886 56.2412 61.8466 56.3559 62.1906 56.3559C62.5346 56.3559 62.8212 56.2412 63.0506 56.0119C63.3372 55.7826 63.5666 55.4672 63.7386 55.0659C64.1399 54.3206 64.6846 52.7152 65.3726 50.2499C66.0606 47.7272 67.0926 43.7712 68.4686 38.3819H66.7486L68.1246 32.1899H76.7246L69.9306 60.9999H65.2866L65.3726 60.5699C65.4299 60.3406 65.8026 58.8786 66.4906 56.1839C67.2359 53.4319 68.8412 47.4979 71.3066 38.3819H69.9306C67.6372 47.5552 66.2039 53.0592 65.6306 54.8939C65.1146 56.7285 64.5699 58.1906 63.9966 59.2799Z" fill="black"/>
<path d="M75.8007 60.9999L89.7327 0.799879H95.7527L89.9047 50.6799H90.9367C92.5994 40.1879 93.6314 33.6806 94.0327 31.1579C94.4914 28.5779 94.8927 26.5425 95.2367 25.0519L100.827 0.799879H106.847L92.9147 60.9999H86.8947L92.8287 11.1199H91.7107C90.0481 21.4399 88.9874 28.0332 88.5287 30.8999C88.0701 33.7092 87.6401 35.9165 87.2387 37.5219L81.8207 60.9999H75.8007Z" fill="black"/>
</svg>
