<svg width="129" height="41" viewBox="0 0 129 41" fill="none" xmlns="http://www.w3.org/2000/svg">
<path d="M0 39.704L11.592 0.504H18.032L11.48 39.704H7.672L8.848 33.04H5.656L3.752 39.704H0ZM7.112 27.832L6.664 29.344H9.52L9.8 27.832C10.6587 23.0907 11.3493 19.3013 11.872 16.464C12.432 13.5893 13.44 8.60533 14.896 1.512H14.168C13.0107 6.29067 12.0587 10.08 11.312 12.88C10.5653 15.6427 9.16533 20.6267 7.112 27.832Z" fill="white"/>
<path d="M14.8089 39.704L23.8809 0.504H27.8009L19.6249 35.952H24.1609L23.3209 39.704H14.8089Z" fill="white"/>
<path d="M26.3222 39.704L35.3942 0.504H39.3142L30.2422 39.704H26.3222Z" fill="white"/>
<path d="M41.2169 38.584C40.9182 39.144 40.5262 39.5547 40.0409 39.816C39.5929 40.0773 39.0515 40.208 38.4169 40.208C37.5209 40.208 36.8302 39.8907 36.3449 39.256C35.8595 38.6213 35.6169 37.7067 35.6169 36.512C35.6169 35.392 35.8409 33.656 36.2889 31.304C36.7369 28.9147 37.5395 25.2187 38.6969 20.216C40.1155 14.168 41.1795 9.912 41.8889 7.448C42.5982 4.94667 43.3449 3.17334 44.1289 2.128C44.6889 1.38133 45.3422 0.84 46.0889 0.504C46.8729 0.168 47.8249 0 48.9449 0C50.1769 0 51.1289 0.354666 51.8009 1.064C52.4729 1.77333 52.8089 2.78134 52.8089 4.088C52.8089 4.90934 52.6782 5.992 52.4169 7.336C52.1929 8.64267 51.7822 10.6027 51.1849 13.216H47.6569C48.4035 10.0427 48.8702 7.97067 49.0569 7C49.2435 6.02933 49.3369 5.32 49.3369 4.872C49.3369 4.424 49.2249 4.088 49.0009 3.864C48.8142 3.64 48.5155 3.528 48.1049 3.528C47.7689 3.528 47.4702 3.60267 47.2089 3.752C46.9475 3.90133 46.7422 4.144 46.5929 4.48C46.2942 5.07733 45.8835 6.36533 45.3609 8.344C44.8755 10.3227 43.9609 14.2613 42.6169 20.16C41.3849 25.3867 40.5262 29.1387 40.0409 31.416C39.5929 33.656 39.3689 35.0933 39.3689 35.728C39.3689 36.0267 39.4249 36.2693 39.5369 36.456C39.6489 36.6053 39.8169 36.68 40.0409 36.68C40.2649 36.68 40.4515 36.6053 40.6009 36.456C40.7875 36.3067 40.9369 36.1013 41.0489 35.84C41.3102 35.3547 41.6649 34.3093 42.1129 32.704C42.5609 31.0613 43.2329 28.4853 44.1289 24.976H43.0089L43.9049 20.944H49.5049L45.0809 39.704H42.0569L42.1129 39.424C42.1502 39.2747 42.3929 38.3227 42.8409 36.568C43.3262 34.776 44.3715 30.912 45.9769 24.976H45.0809C43.5875 30.9493 42.6542 34.5333 42.2809 35.728C41.9449 36.9227 41.5902 37.8747 41.2169 38.584Z" fill="white"/>
<path d="M48.9033 39.704L57.9753 0.504H61.8953L58.0873 32.984H58.7593C59.842 26.152 60.514 21.9147 60.7753 20.272C61.074 18.592 61.3353 17.2667 61.5593 16.296L65.1993 0.504H69.1193L60.0473 39.704H56.1273L59.9913 7.224H59.2633C58.1806 13.944 57.49 18.2373 57.1913 20.104C56.8926 21.9333 56.6126 23.3707 56.3513 24.416L52.8233 39.704H48.9033Z" fill="white"/>
<path d="M63.7285 39.704L72.8005 0.504H76.8885C78.7179 0.504 80.0619 0.858666 80.9205 1.568C81.8165 2.27733 82.2645 3.37867 82.2645 4.872C82.2645 5.50667 82.1712 6.42133 81.9845 7.616C81.7978 8.77333 81.5178 10.136 81.1445 11.704C80.5845 14.1307 80.1552 15.7547 79.8565 16.576C79.5578 17.36 79.1845 17.9947 78.7365 18.48C78.3259 18.928 77.8218 19.264 77.2245 19.488C76.6645 19.6747 75.9365 19.7867 75.0405 19.824L74.8725 20.496C76.1045 20.5333 77.0005 20.7947 77.5605 21.28C78.1578 21.7653 78.4565 22.512 78.4565 23.52C78.4565 24.1173 78.3632 24.92 78.1765 25.928C78.0272 26.936 77.7098 28.4853 77.2245 30.576C76.8138 32.368 76.3658 33.8427 75.8805 35C75.3952 36.12 74.8165 37.0347 74.1445 37.744C73.5098 38.416 72.7258 38.92 71.7925 39.256C70.8965 39.5547 69.7392 39.704 68.3205 39.704H63.7285ZM78.5685 5.824C78.5685 5.22667 78.4005 4.79733 78.0645 4.536C77.7285 4.23733 77.1872 4.088 76.4405 4.088H75.8805L72.2965 19.656H72.9125C73.5098 19.656 74.0138 19.5627 74.4245 19.376C74.8725 19.1893 75.2272 18.9093 75.4885 18.536C75.7125 18.2 75.9365 17.6587 76.1605 16.912C76.3845 16.1653 76.8139 14.4293 77.4485 11.704C77.8965 9.72533 78.1952 8.36267 78.3445 7.616C78.4939 6.832 78.5685 6.23467 78.5685 5.824ZM74.9285 22.456C74.9285 21.8213 74.7418 21.3733 74.3685 21.112C74.0325 20.8507 73.4352 20.72 72.5765 20.72H72.0165L68.4885 36.12H69.1605C69.6832 36.12 70.1312 36.0453 70.5045 35.896C70.8778 35.7467 71.2138 35.5413 71.5125 35.28C71.8858 34.9067 72.2218 34.272 72.5205 33.376C72.8192 32.48 73.2298 30.9307 73.7525 28.728C74.2378 26.6 74.5552 25.1253 74.7045 24.304C74.8538 23.4827 74.9285 22.8667 74.9285 22.456Z" fill="white" fill-opacity="0.5"/>
<path d="M89.2151 37.744C88.6177 38.6027 87.9457 39.2373 87.1991 39.648C86.4524 40.0213 85.5751 40.208 84.5671 40.208C83.0364 40.208 81.8977 39.816 81.1511 39.032C80.4044 38.2107 80.0311 36.9973 80.0311 35.392C80.0311 34.272 80.2177 32.6853 80.5911 30.632C80.9644 28.5413 81.7297 25.032 82.8871 20.104C84.1937 14.392 85.2204 10.2667 85.9671 7.728C86.7511 5.18933 87.4791 3.43467 88.1511 2.464C88.7484 1.60533 89.4204 0.989334 90.1671 0.616001C90.9137 0.205333 91.7911 0 92.7991 0C94.3297 0 95.4684 0.410666 96.2151 1.232C96.9617 2.016 97.3351 3.21067 97.3351 4.816C97.3351 5.936 97.1484 7.54133 96.7751 9.632C96.4017 11.6853 95.6364 15.176 94.4791 20.104C93.1724 25.816 92.1271 29.9413 91.3431 32.48C90.5964 35.0187 89.8871 36.7733 89.2151 37.744ZM93.6951 5.152C93.6951 4.592 93.5831 4.18133 93.3591 3.92C93.1724 3.65867 92.8551 3.528 92.4071 3.528C92.0711 3.528 91.7724 3.60267 91.5111 3.752C91.2871 3.90133 91.0817 4.144 90.8951 4.48C90.5217 5.11467 90.0551 6.496 89.4951 8.624C88.9724 10.752 88.0764 14.5787 86.8071 20.104C85.3137 26.5627 84.4177 30.5387 84.1191 32.032C83.8204 33.488 83.6711 34.496 83.6711 35.056C83.6711 35.616 83.7644 36.0267 83.9511 36.288C84.1751 36.5493 84.5111 36.68 84.9591 36.68C85.2951 36.68 85.5751 36.6053 85.7991 36.456C86.0604 36.3067 86.2844 36.064 86.4711 35.728C86.8071 35.1307 87.2177 33.8987 87.7031 32.032C88.1884 30.128 89.1404 26.152 90.5591 20.104C92.0524 13.6453 92.9484 9.688 93.2471 8.232C93.5457 6.73867 93.6951 5.712 93.6951 5.152Z" fill="white" fill-opacity="0.5"/>
<path d="M93.7498 39.704L102.822 0.504H107.134C108.963 0.504 110.326 0.877334 111.222 1.624C112.118 2.37067 112.566 3.528 112.566 5.096C112.566 6.17867 112.342 7.85867 111.894 10.136C111.483 12.376 110.774 15.6987 109.766 20.104C108.272 26.6 107.19 30.9867 106.518 33.264C105.846 35.504 105.118 37.0347 104.334 37.856C103.699 38.528 102.934 39.0133 102.038 39.312C101.179 39.5733 99.9844 39.704 98.4538 39.704H93.7498ZM108.814 5.88C108.814 5.208 108.646 4.74133 108.31 4.48C108.011 4.21867 107.488 4.088 106.742 4.088H105.902L98.5098 36.12H99.4618C100.059 36.12 100.526 36.064 100.862 35.952C101.235 35.8027 101.552 35.5787 101.814 35.28C102.15 34.8693 102.523 33.88 102.934 32.312C103.382 30.7067 104.352 26.6373 105.846 20.104C107.19 14.28 108.011 10.584 108.31 9.016C108.646 7.448 108.814 6.40267 108.814 5.88Z" fill="white" fill-opacity="0.5"/>
<path d="M111.674 39.704L113.634 31.304L116.826 0.504H120.802L118.842 14.336C118.73 15.1573 118.506 16.3893 118.17 18.032C117.834 19.6747 117.348 22.0453 116.714 25.144H117.442C118.226 21.8587 118.823 19.432 119.234 17.864C119.644 16.296 119.98 15.12 120.242 14.336L124.722 0.504H128.642L117.554 31.304L115.594 39.704H111.674Z" fill="white" fill-opacity="0.5"/>
</svg>
