<svg width="577" height="181" viewBox="0 0 577 181" fill="none" xmlns="http://www.w3.org/2000/svg">
<path d="M0.5 178L52.25 2.99999H81L51.75 178H34.75L40 148.25H25.75L17.25 178H0.5ZM32.25 125L30.25 131.75H43L44.25 125C48.0833 103.833 51.1667 86.9167 53.5 74.25C56 61.4167 60.5 39.1667 67 7.49999H63.75C58.5833 28.8333 54.3333 45.75 51 58.25C47.6667 70.5833 41.4167 92.8333 32.25 125ZM66.6113 178L107.111 2.99999H124.611L88.1113 161.25H108.361L104.611 178H66.6113ZM118.01 178L158.51 2.99999H176.01L135.51 178H118.01ZM184.504 173C183.171 175.5 181.421 177.333 179.254 178.5C177.254 179.667 174.837 180.25 172.004 180.25C168.004 180.25 164.921 178.833 162.754 176C160.587 173.167 159.504 169.083 159.504 163.75C159.504 158.75 160.504 151 162.504 140.5C164.504 129.833 168.087 113.333 173.254 91C179.587 64 184.337 45 187.504 34C190.671 22.8333 194.004 14.9167 197.504 10.25C200.004 6.91666 202.921 4.49999 206.254 2.99999C209.754 1.49999 214.004 0.749987 219.004 0.749987C224.504 0.749987 228.754 2.33332 231.754 5.49999C234.754 8.66666 236.254 13.1667 236.254 19C236.254 22.6667 235.671 27.5 234.504 33.5C233.504 39.3333 231.671 48.0833 229.004 59.75H213.254C216.587 45.5833 218.671 36.3333 219.504 32C220.337 27.6667 220.754 24.5 220.754 22.5C220.754 20.5 220.254 19 219.254 18C218.421 17 217.087 16.5 215.254 16.5C213.754 16.5 212.421 16.8333 211.254 17.5C210.087 18.1667 209.171 19.25 208.504 20.75C207.171 23.4167 205.337 29.1667 203.004 38C200.837 46.8333 196.754 64.4167 190.754 90.75C185.254 114.083 181.421 130.833 179.254 141C177.254 151 176.254 157.417 176.254 160.25C176.254 161.583 176.504 162.667 177.004 163.5C177.504 164.167 178.254 164.5 179.254 164.5C180.254 164.5 181.087 164.167 181.754 163.5C182.587 162.833 183.254 161.917 183.754 160.75C184.921 158.583 186.504 153.917 188.504 146.75C190.504 139.417 193.504 127.917 197.504 112.25H192.504L196.504 94.25H221.504L201.754 178H188.254L188.504 176.75C188.671 176.083 189.754 171.833 191.754 164C193.921 156 198.587 138.75 205.754 112.25H201.754C195.087 138.917 190.921 154.917 189.254 160.25C187.754 165.583 186.171 169.833 184.504 173ZM218.818 178L259.318 2.99999H276.818L259.818 148H262.818C267.652 117.5 270.652 98.5833 271.818 91.25C273.152 83.75 274.318 77.8333 275.318 73.5L291.568 2.99999H309.068L268.568 178H251.068L268.318 33H265.068C260.235 63 257.152 82.1667 255.818 90.5C254.485 98.6667 253.235 105.083 252.068 109.75L236.318 178H218.818Z" fill="#1F2D16"/>
<path d="M286.562 178L327.062 2.99999H345.313C353.479 2.99999 359.479 4.58332 363.313 7.74999C367.313 10.9167 369.312 15.8333 369.312 22.5C369.312 25.3333 368.896 29.4167 368.063 34.75C367.229 39.9167 365.979 46 364.313 53C361.813 63.8333 359.896 71.0833 358.563 74.75C357.229 78.25 355.563 81.0833 353.563 83.25C351.729 85.25 349.479 86.75 346.813 87.75C344.313 88.5833 341.063 89.0833 337.063 89.25L336.313 92.25C341.813 92.4167 345.813 93.5833 348.313 95.75C350.979 97.9167 352.313 101.25 352.313 105.75C352.313 108.417 351.896 112 351.063 116.5C350.396 121 348.979 127.917 346.813 137.25C344.979 145.25 342.979 151.833 340.813 157C338.646 162 336.063 166.083 333.063 169.25C330.229 172.25 326.729 174.5 322.563 176C318.563 177.333 313.396 178 307.063 178H286.562ZM352.813 26.75C352.813 24.0833 352.063 22.1667 350.563 21C349.063 19.6667 346.646 19 343.313 19H340.813L324.813 88.5H327.563C330.229 88.5 332.479 88.0833 334.313 87.25C336.313 86.4167 337.896 85.1667 339.063 83.5C340.063 82 341.063 79.5833 342.063 76.25C343.063 72.9167 344.979 65.1667 347.813 53C349.813 44.1667 351.146 38.0833 351.813 34.75C352.479 31.25 352.813 28.5833 352.813 26.75ZM336.563 101C336.563 98.1667 335.729 96.1667 334.063 95C332.563 93.8333 329.896 93.25 326.063 93.25H323.563L307.813 162H310.813C313.146 162 315.146 161.667 316.813 161C318.479 160.333 319.979 159.417 321.313 158.25C322.979 156.583 324.479 153.75 325.813 149.75C327.146 145.75 328.979 138.833 331.313 129C333.479 119.5 334.896 112.917 335.563 109.25C336.229 105.583 336.563 102.833 336.563 101ZM400.342 169.25C397.675 173.083 394.675 175.917 391.342 177.75C388.008 179.417 384.092 180.25 379.592 180.25C372.758 180.25 367.675 178.5 364.342 175C361.008 171.333 359.342 165.917 359.342 158.75C359.342 153.75 360.175 146.667 361.842 137.5C363.508 128.167 366.925 112.5 372.092 90.5C377.925 65 382.508 46.5833 385.842 35.25C389.342 23.9167 392.592 16.0833 395.592 11.75C398.258 7.91666 401.258 5.16666 404.592 3.5C407.925 1.66666 411.842 0.749987 416.342 0.749987C423.175 0.749987 428.258 2.58332 431.592 6.24999C434.925 9.75 436.592 15.0833 436.592 22.25C436.592 27.25 435.758 34.4167 434.092 43.75C432.425 52.9167 429.008 68.5 423.842 90.5C418.008 116 413.342 134.417 409.842 145.75C406.508 157.083 403.342 164.917 400.342 169.25ZM420.342 23.75C420.342 21.25 419.842 19.4167 418.842 18.25C418.008 17.0833 416.592 16.5 414.592 16.5C413.092 16.5 411.758 16.8333 410.592 17.5C409.592 18.1667 408.675 19.25 407.842 20.75C406.175 23.5833 404.092 29.75 401.592 39.25C399.258 48.75 395.258 65.8333 389.592 90.5C382.925 119.333 378.925 137.083 377.592 143.75C376.258 150.25 375.592 154.75 375.592 157.25C375.592 159.75 376.008 161.583 376.842 162.75C377.842 163.917 379.342 164.5 381.342 164.5C382.842 164.5 384.092 164.167 385.092 163.5C386.258 162.833 387.258 161.75 388.092 160.25C389.592 157.583 391.425 152.083 393.592 143.75C395.758 135.25 400.008 117.5 406.342 90.5C413.008 61.6667 417.008 44 418.342 37.5C419.675 30.8333 420.342 26.25 420.342 23.75ZM420.586 178L461.086 2.99999H480.336C488.503 2.99999 494.586 4.66666 498.586 8C502.586 11.3333 504.586 16.5 504.586 23.5C504.586 28.3333 503.586 35.8333 501.586 46C499.753 56 496.586 70.8333 492.086 90.5C485.419 119.5 480.586 139.083 477.586 149.25C474.586 159.25 471.336 166.083 467.836 169.75C465.003 172.75 461.586 174.917 457.586 176.25C453.753 177.417 448.419 178 441.586 178H420.586ZM487.836 27C487.836 24 487.086 21.9167 485.586 20.75C484.253 19.5833 481.919 19 478.586 19H474.836L441.836 162H446.086C448.753 162 450.836 161.75 452.336 161.25C454.003 160.583 455.419 159.583 456.586 158.25C458.086 156.417 459.753 152 461.586 145C463.586 137.833 467.919 119.667 474.586 90.5C480.586 64.5 484.253 48 485.586 41C487.086 34 487.836 29.3333 487.836 27ZM500.604 178L509.354 140.5L523.604 2.99999H541.354L532.604 64.75C532.104 68.4167 531.104 73.9167 529.604 81.25C528.104 88.5833 525.937 99.1667 523.104 113H526.354C529.854 98.3333 532.52 87.5 534.354 80.5C536.187 73.5 537.687 68.25 538.854 64.75L558.854 2.99999H576.354L526.854 140.5L518.104 178H500.604Z" fill="#1F2D16" fill-opacity="0.4"/>
</svg>
